<svg width="312" height="229" viewBox="0 0 312 229" fill="none" xmlns="http://www.w3.org/2000/svg">
<g opacity="0.08">
<g clip-path="url(#clip0_3_1009)">
<path d="M3.29732 300.308C4.7401 268.621 25.042 245.473 41.3248 226.851L42.4584 225.514C44.3134 223.559 48.7448 218.209 48.3326 211.831C48.1265 207.921 46.1684 204.423 42.5615 201.337C40.3973 199.485 38.4393 197.736 36.4812 196.193C28.0307 188.991 21.4351 183.23 11.1295 176.131C7.31649 173.559 3.60648 171.09 -0.000460063 168.724V169.135C3.60648 171.399 7.21343 173.868 10.9234 176.44C21.229 183.539 27.9276 189.3 36.2751 196.501C38.1301 198.148 40.1912 199.897 42.3554 201.646C45.8593 204.629 47.8173 208.127 48.0234 211.934C48.3326 218.209 44.1073 223.456 42.1493 225.411L41.0157 226.748C24.7329 245.37 4.43093 268.518 2.8851 300.411C2.67898 303.806 1.44232 305.863 -0.103516 306.584V306.995C1.64843 306.172 3.09121 304.114 3.29732 300.308Z" fill="white"/>
<path d="M10.5117 300.617C11.8514 271.399 31.2258 249.28 46.7872 231.584L47.9208 230.247C51.2186 226.543 53.795 223.251 55.7531 220.473C58.1233 216.975 62.6578 210.597 52.0431 200.309C40.6039 189.3 28.2372 179.115 15.2522 170.165C9.99639 166.461 4.84361 163.169 0 160.288V160.7C4.84361 163.683 9.79028 166.872 15.0461 170.473C28.0311 179.424 40.3978 189.609 51.837 200.617C62.2456 210.7 57.9172 216.975 55.547 220.37C53.5889 223.148 51.0125 226.44 47.7147 230.144L46.5811 231.481C30.9167 249.177 11.5422 271.296 10.2025 300.617C9.58417 314.197 7.11083 322.119 2.57639 325.514C1.64889 326.234 0.824445 326.543 0 326.646V326.954C0.824445 326.852 1.75194 326.543 2.7825 325.72C7.42 322.325 9.89333 314.3 10.5117 300.617Z" fill="white"/>
<path d="M136.239 91.6664C134.281 83.7446 118.102 81.687 99.3456 79.2178C94.7081 78.6006 89.9675 77.9833 85.33 77.2631C64.8219 74.0738 46.0658 63.7858 27.825 53.8064C18.7561 48.7652 9.48111 43.7241 0 39.506V40.329C9.37806 44.4442 18.55 49.4854 27.5158 54.4236C45.7567 64.4031 64.6158 74.6911 85.2269 77.9833C89.8644 78.7034 94.7081 79.3207 99.2425 79.938C116.968 82.2014 133.663 84.4647 135.518 91.8721C136.961 97.6334 129.438 106.378 112.434 118.724C88.6278 135.905 68.635 143.93 49.4667 143.93C38.6458 143.93 27.825 141.255 17.5194 135.905C11.13 132.613 5.46194 128.6 0 124.485V125.411C5.35889 129.423 10.9239 133.333 17.2103 136.522C27.7219 141.872 38.5428 144.65 49.5697 144.65C68.8411 144.65 88.9369 136.625 112.949 119.341C130.468 106.584 137.785 97.8392 136.239 91.6664Z" fill="white"/>
<path d="M2.67944 254.011C5.46194 249.176 9.06889 244.752 12.5728 240.431C17.6225 234.258 22.7753 227.88 25.5578 220.061C30.5044 206.275 20.8172 199.896 10.6147 193.106C9.68722 192.489 8.75972 191.872 7.72917 191.254C6.08028 190.123 4.43139 188.991 2.88555 187.962C2.16417 187.448 1.13361 186.728 0 185.905V186.316C1.13361 187.139 1.95806 187.756 2.67944 188.271C4.22528 189.402 5.87417 190.431 7.52305 191.563C8.45055 192.18 9.37805 192.798 10.4086 193.415C20.5081 200.102 30.0922 206.481 25.2486 220.061C22.4661 227.88 17.3133 234.258 12.2636 240.328C8.75972 244.649 5.15278 249.073 2.37028 253.909C1.54583 255.349 0.721389 257.304 0 259.258V260.081C0.103056 259.876 0.206111 259.67 0.206111 259.464C1.03056 257.406 1.855 255.555 2.67944 254.011Z" fill="white"/>
<path d="M161.489 62.6543C159.737 62.6543 157.16 63.786 155.408 69.1358C153.347 75.2057 157.366 76.5432 161.592 78.0864C162.313 78.395 163.138 78.6008 163.859 78.9094C165.508 79.5267 166.951 79.9382 167.981 79.9382C169.218 79.9382 170.042 79.5267 170.558 78.7037C172.103 76.2345 169.63 70.679 168.496 68.4156C166.538 64.8148 163.962 62.6543 161.489 62.6543ZM170.145 78.4979C169.321 79.8354 167.26 79.8354 164.065 78.4979C163.344 78.1893 162.519 77.8806 161.798 77.6749C157.676 76.2345 154.069 75 156.027 69.3415C157.366 65.3292 159.325 63.1687 161.695 63.1687C163.962 63.1687 166.332 65.2263 168.187 68.7243C170.351 73.251 171.073 76.8518 170.145 78.4979Z" fill="white"/>
<path d="M27.825 231.378C28.2372 230.863 28.7525 230.246 29.2678 229.732C35.8633 221.913 42.7681 213.888 34.9358 204.217C28.8556 196.81 19.7867 190.637 11.7483 185.185C10.0994 184.053 8.55361 183.024 7.00778 181.892C5.97722 181.172 4.53444 180.143 2.88556 178.909C2.06111 178.394 1.03056 177.674 0 176.954V177.366C0.9275 178.086 1.855 178.703 2.7825 179.32C4.43139 180.555 5.77111 181.584 6.90472 182.304C8.45055 183.333 9.99639 184.464 11.6453 185.596C19.6836 191.049 28.7525 197.119 34.7297 204.526C42.3558 213.991 35.5542 221.913 29.0617 229.629C28.5464 230.143 28.1342 230.761 27.6189 231.275C21.8478 238.168 14.5308 247.324 8.65667 257.51C5.15278 263.682 2.16417 270.267 0 276.954V277.983C2.26722 270.987 5.25583 264.197 8.96583 257.715C14.7369 247.427 22.0539 238.271 27.825 231.378Z" fill="white"/>
<path d="M21.9504 127.263C29.7826 131.275 36.4812 133.127 42.8706 133.127C49.6723 133.127 55.6495 131.07 62.5543 128.703C66.4704 127.366 71.0048 125.823 76.0545 124.588C78.6309 123.971 80.8982 123.868 82.3409 123.868C83.3715 123.868 84.299 123.868 85.2265 123.971C86.0509 123.971 86.8754 124.074 87.6998 124.074C91.9251 124.074 95.2229 123.045 98.8298 118.21C101.303 114.917 102.231 112.345 103.055 110.082C104.292 106.687 105.219 104.012 110.578 100.206C111.918 99.1767 113.876 98.4566 115.834 97.7364C118.926 96.5018 121.502 95.473 121.605 93.7241C121.708 92.2837 120.059 90.7405 116.349 88.6829C112.021 86.3167 105.735 86.008 100.17 86.008C97.6962 86.008 95.1198 86.1109 92.6465 86.1109C90.1732 86.2138 87.4937 86.2138 85.0204 86.2138C79.4554 86.2138 75.5393 85.8023 72.4476 84.9792C54.5159 80.2467 37.7179 70.9875 22.8779 62.8599C15.1487 58.6418 7.5226 54.5266 -0.000460063 50.9258V51.5431C7.41954 55.041 14.9426 59.1562 22.6718 63.3743C37.5118 71.5019 54.4129 80.7611 72.3445 85.5965C75.5393 86.4196 79.4554 86.8311 85.1234 86.8311C87.5968 86.8311 90.2762 86.7282 92.7495 86.7282C95.2229 86.6253 97.7993 86.6253 100.273 86.6253C105.735 86.6253 111.918 86.934 116.143 89.3002C119.544 91.1521 121.193 92.5924 121.09 93.827C120.987 95.2673 118.41 96.2961 115.628 97.3249C113.67 98.0451 111.712 98.8681 110.269 99.8969C104.807 103.806 103.776 106.687 102.54 109.979C101.715 112.243 100.788 114.712 98.4176 118.004C94.9137 122.736 91.719 123.662 87.6998 123.662C86.8754 123.662 86.0509 123.662 85.2265 123.559C84.299 123.559 83.3715 123.457 82.3409 123.457C80.8982 123.457 78.5279 123.559 75.9515 124.177C70.9018 125.411 66.3673 126.954 62.4512 128.292C55.5465 130.658 49.5693 132.613 42.8706 132.613C36.4812 132.613 29.8857 130.761 22.1565 126.749C15.0457 123.148 8.65621 118.313 2.47287 113.58C1.64843 112.963 0.720929 112.243 -0.103516 111.625V112.243C0.617873 112.86 1.44232 113.374 2.16371 113.992C8.4501 118.827 14.8395 123.662 21.9504 127.263Z" fill="white"/>
<path d="M26.6914 118.004C34.3175 121.913 41.7375 123.765 49.5697 123.765C53.898 123.765 63.2761 122.016 71.4175 119.033C78.5283 116.461 87.0819 112.14 87.0819 106.378C87.0819 99.5884 73.8908 95.7818 66.0586 93.5184C64.3067 93.004 62.8639 92.5925 61.8333 92.2838C47.7147 87.1398 33.6992 80.7612 17.8286 72.0164C11.7483 68.7242 5.87417 65.432 0 62.5514V62.86C5.77111 65.7407 11.7483 69.0329 17.7256 72.325C33.6992 80.967 47.7147 87.4485 61.8333 92.5925C62.8639 93.004 64.3067 93.4155 66.0586 93.8271C73.8908 96.0904 86.8758 99.7941 86.8758 106.378C86.8758 116.358 58.6386 123.457 49.5697 123.457C41.8405 123.457 34.4205 121.605 26.8975 117.695C20.6111 114.506 14.6339 109.876 8.75972 105.555C5.97722 103.395 3.09167 101.234 0 99.074V99.4855C2.98861 101.543 5.77111 103.704 8.55361 105.761C14.4278 110.185 20.405 114.815 26.6914 118.004Z" fill="white"/>
<path d="M29.9887 111.625C36.5843 115.02 42.9737 116.666 49.5693 116.666C55.2373 116.666 62.7604 115.02 65.6459 111.214C66.8826 109.568 67.2948 107.716 66.6765 105.555C65.3368 100.617 54.9281 97.0161 47.302 94.4441C44.8287 93.621 42.6645 92.9009 41.4279 92.2836C32.5651 88.1684 23.9084 83.4359 15.4579 78.8062L14.5304 78.2918C9.48065 75.6169 4.7401 73.0449 -0.000460075 70.5758V70.8845C4.63704 73.2507 9.3776 75.9256 14.2212 78.4976L15.1487 79.012C23.5993 83.7445 32.359 88.477 41.2218 92.5922C42.5615 93.2095 44.7256 93.9297 47.199 94.7527C54.3098 97.119 65.1306 100.823 66.3673 105.658C66.8826 107.716 66.5734 109.465 65.3368 111.008C62.5543 114.609 55.1343 116.255 49.4662 116.255C42.9737 116.255 36.5843 114.609 30.0918 111.316C24.3207 108.333 18.5495 104.012 12.9845 99.7939C8.96537 96.7075 4.63704 93.5182 -0.103516 90.4317V90.8433C4.53398 93.9297 8.86232 97.119 12.7784 100.103C18.4465 104.321 24.2176 108.642 29.9887 111.625Z" fill="white"/>
<path d="M182.923 6.17283C183.439 4.11522 183.954 2.05761 184.469 0H183.954C183.439 1.95473 183.026 4.01234 182.511 6.06995C181.584 9.87653 180.553 13.786 179.832 17.9012C177.152 31.2757 174.885 48.9711 180.759 66.0493C183.129 72.9423 189.107 78.7036 194.362 83.6418C199 88.0657 203.122 91.9751 202.71 95.1644C202.504 96.6048 201.473 97.9422 199.412 99.1768C198.485 99.7941 196.836 99.9998 194.569 99.9998C186.633 99.9998 172.721 96.5019 162.415 93.1068C150.976 89.3003 137.167 83.3332 135.002 76.1316C134.281 73.8682 134.899 71.5019 136.651 69.2386C138.919 66.3579 141.392 63.7859 143.762 61.3168C148.503 56.4814 152.934 51.8518 155.82 45.0616C160.045 35.288 160.56 25.2057 157.366 14.9177C156.644 12.4485 155.82 10.0823 155.098 8.12756C154.068 5.14402 153.243 2.46913 152.625 0.10288H152.11C152.728 2.57201 153.656 5.2469 154.686 8.33332C155.407 10.3909 156.129 12.6543 156.953 15.1234C160.148 25.3086 159.633 35.288 155.511 44.9588C152.625 51.646 148.194 56.2756 143.556 61.111C141.186 63.5801 138.712 66.1521 136.342 69.1357C134.487 71.5019 133.869 73.9711 134.59 76.4402C136.754 83.8476 150.77 89.9175 162.106 93.7241C172.515 97.2221 186.53 100.72 194.465 100.72C196.836 100.72 198.588 100.411 199.618 99.7941C201.885 98.4566 203.019 97.0163 203.225 95.3702C203.637 91.8723 199.515 87.9628 194.672 83.4361C189.416 78.4978 183.542 72.8394 181.171 66.0493C175.297 49.074 177.564 31.5843 180.244 18.2098C180.965 13.8889 181.996 9.97941 182.923 6.17283Z" fill="white"/>
<path d="M33.2869 105.247C35.3481 106.276 41.1192 108.128 45.3444 108.128C46.8903 108.128 48.0239 107.922 48.7453 107.407C50.3942 106.379 51.1156 105.35 50.9094 104.424C50.6003 102.263 45.8597 100.926 42.0467 99.8971C40.5008 99.4856 39.1611 99.074 38.3367 98.7654C29.2678 94.5473 20.405 89.7119 11.8514 85.0823L10.9239 84.5679C7.21389 82.5103 3.60694 80.4527 0 78.6008V79.2181C3.50389 81.07 7.11083 83.0247 10.7178 84.9794L11.6453 85.4938C20.1989 90.2263 29.0617 95.0617 38.1306 99.1769C38.955 99.5884 40.2947 99.8971 41.8406 100.411C45.3444 101.337 50.085 102.675 50.2911 104.527C50.3942 105.247 49.7758 106.173 48.3331 107.099C47.7147 107.51 46.5811 107.716 45.2414 107.716C41.2222 107.716 35.4511 105.864 33.4931 104.835C28.3403 102.16 22.8783 98.0452 17.5194 94.0329C12.4697 90.2263 6.69861 85.8025 0 81.893V82.5103C6.4925 86.4197 12.2636 90.7407 17.2103 94.5473C22.5692 98.4568 28.0311 102.675 33.2869 105.247Z" fill="white"/>
<path d="M17.8286 301.028C19.0653 274.382 37.5122 253.395 52.2492 236.419L53.3828 235.082C71.0053 215.02 70.2839 207.921 62.0394 199.794C52.9706 190.843 38.7489 177.469 19.3744 164.094C12.7789 159.568 6.28639 155.35 0 151.646V152.263C6.18333 155.967 12.5728 160.082 19.0653 164.506C38.3367 177.88 52.5583 191.255 61.6272 200.103C69.6656 208.024 70.2839 214.814 52.9706 234.67L51.8369 236.008C36.9969 252.983 18.55 274.074 17.3133 300.925C16.0767 326.131 6.59556 333.539 0 335.596V336.111C6.80167 334.156 16.5919 326.646 17.8286 301.028Z" fill="white"/>
<path d="M131.498 8.84758C138.609 30.7611 141.392 42.6953 123.872 52.8804C120.987 54.5265 117.689 55.7611 114.185 56.4812C111.196 57.0985 107.796 57.4072 104.292 57.4072C71.7262 57.4072 27.0001 30.2467 2.8851 15.6377L2.06065 15.1233C1.33926 14.7118 0.617873 14.1974 -0.103516 13.7858V14.4031C0.514818 14.8146 1.13315 15.1233 1.75148 15.5348L2.57593 16.0492C26.794 30.7611 71.6232 58.0244 104.395 58.0244C108.002 58.0244 111.3 57.7158 114.391 56.9956C117.998 56.2755 121.296 54.938 124.285 53.2919C142.113 43.0039 139.228 30.864 132.117 8.64181C131.189 5.86404 130.262 2.88051 129.437 -0.103027H128.819C129.643 3.08627 130.571 6.0698 131.498 8.84758Z" fill="white"/>
<path d="M90.3791 5.76114C90.5852 6.58418 90.8943 7.5101 91.2035 8.53891C92.131 11.6253 91.9249 13.6829 90.6882 14.6089C90.0699 15.1233 89.1424 15.329 87.9057 15.329C82.856 15.329 74.5085 10.8023 71.726 9.36195C70.3863 8.64179 69.3557 8.12739 68.5313 7.71586L64.306 5.65826C60.3899 3.80641 56.6799 1.85168 52.9699 -0.103052H52.3516C56.1646 1.95456 60.1838 3.90929 64.203 5.86402L68.4282 7.92163C69.2527 8.33315 70.1802 8.84755 71.623 9.56771C74.4055 11.008 82.856 15.5348 87.9057 15.5348C89.1424 15.5348 90.173 15.2261 90.7913 14.7117C92.131 13.5801 92.3371 11.4196 91.4096 8.23027C91.1005 7.20146 90.7913 6.17266 90.5852 5.45249C90.0699 3.60065 89.5546 1.7488 89.1424 -0.205933H88.8332C89.3485 1.95456 89.8638 3.90929 90.3791 5.76114Z" fill="white"/>
<path d="M121.812 12.0369C124.697 20.8846 127.377 32.0986 123.151 39.4031C120.987 43.0039 117.277 45.473 112.124 46.6047C109.754 47.1191 107.178 47.3249 104.395 47.3249C74.6122 47.3249 31.4319 21.0904 8.24444 6.99573L4.01917 4.42371C2.67944 3.60067 1.33972 2.88051 0 2.16034V2.46899C1.33972 3.18915 2.57639 3.80643 3.81306 4.62948L8.14139 7.20149C31.3289 21.2961 74.6122 47.5306 104.395 47.5306C107.281 47.5306 109.857 47.3249 112.228 46.8105C117.483 45.6788 121.296 43.2097 123.461 39.506C127.789 31.9957 125.006 20.7817 122.121 11.8311C120.884 8.02453 119.648 4.01219 118.617 -0.103027H118.308C119.338 4.11507 120.575 8.12741 121.812 12.0369Z" fill="white"/>
<path d="M97.387 3.90946C97.5931 4.62962 97.7992 5.45267 98.1084 6.48147C99.6542 11.4197 101.818 18.8271 99.7573 22.2222C98.9328 23.6625 97.49 24.4856 95.7381 24.8971C95.0167 25.1028 94.1923 25.1028 93.3678 25.1028C85.8448 25.1028 74.5087 19.0329 68.4284 15.8436C67.2948 15.2263 66.2642 14.7119 65.4398 14.3004L64.9245 13.9917C64.3062 13.6831 63.7909 13.3745 63.2756 13.1687L61.3175 12.2428C53.0731 8.23044 45.2409 4.11522 38.1301 0H37.5117C44.8287 4.2181 52.7639 8.33332 61.2145 12.4485L63.1725 13.3745C63.6878 13.5802 64.2031 13.8889 64.8214 14.1975L65.3367 14.5061C66.0581 14.9177 67.0887 15.4321 68.3253 16.0494C74.4056 19.3415 85.7417 25.4115 93.3678 25.4115C94.2953 25.4115 95.1198 25.3086 95.8412 25.2057C97.6962 24.7942 99.1389 23.8683 100.066 22.3251C102.231 18.8271 99.9634 11.3169 98.4175 6.37859C98.1084 5.34978 97.9023 4.52674 97.6962 3.80658C97.387 2.57201 96.9748 1.23457 96.6656 0H96.3564C96.6656 1.33745 97.0778 2.57201 97.387 3.90946Z" fill="white"/>
<path d="M104.394 2.05761C105.837 7.51028 107.383 13.2716 107.486 19.0329C107.692 26.646 104.703 30.967 98.7262 31.893C97.7987 31.9958 96.8712 32.0987 95.8406 32.0987C85.329 32.0987 70.3859 24.5884 62.3476 20.5761C61.5231 20.1646 60.8017 19.8559 60.1834 19.5473L58.2254 18.6214C45.5495 12.5514 33.9042 6.17283 24.0109 0H23.3926C33.492 6.27571 45.2404 12.7572 58.0192 18.93L59.9773 19.8559C60.5956 20.1646 61.317 20.5761 62.1415 20.8847C70.1798 24.8971 85.2259 32.4074 95.8406 32.4074C96.8712 32.4074 97.9017 32.3045 98.8292 32.2016C105.013 31.1728 108.104 26.7489 107.898 19.0329C107.692 13.1687 106.249 7.4074 104.703 1.95473C104.497 1.33745 104.394 0.617283 104.188 0H103.879C103.982 0.720163 104.188 1.33745 104.394 2.05761Z" fill="white"/>
<path d="M114.907 14.1974C115.01 14.7118 115.216 15.1233 115.319 15.6377C116.968 20.6788 118.72 25.8229 115.937 30.7611C113.67 34.9792 109.032 38.2714 104.086 39.4031C103.571 39.506 103.055 39.6088 102.54 39.6088C101.303 39.7117 100.067 39.8146 98.7269 39.8146C84.9175 39.8146 68.6347 31.8928 56.7833 26.0286L54.8253 25.1027C39.573 17.6953 24.9392 8.74469 11.9541 0.822897C11.4389 0.514256 10.9236 0.205614 10.5114 -0.103027H9.99609C10.9236 0.514256 11.8511 1.02866 11.8511 1.02866C24.8361 8.95045 39.573 17.7982 54.8253 25.3085L56.7833 26.2344C68.6347 32.0986 84.9175 40.0204 98.83 40.0204C100.17 40.0204 101.406 39.9175 102.643 39.8146C103.158 39.7117 103.674 39.7117 104.189 39.6088C109.136 38.4772 113.876 35.0821 116.246 30.864C119.029 25.72 117.38 20.4731 115.628 15.4319C115.422 14.9175 115.319 14.506 115.216 13.9916C113.773 9.46486 112.33 4.73235 111.197 -0.103027H110.887C112.021 4.93812 113.464 9.67062 114.907 14.1974Z" fill="white"/>
<path d="M103.775 229.629C99.2402 230.761 95.3241 237.037 92.1294 241.975C90.9958 243.724 89.9652 245.37 89.0377 246.604C83.8849 253.189 78.1138 259.156 72.5488 264.917C71.106 266.46 69.251 268.106 67.293 269.855C61.5219 275.205 54.411 281.79 52.2469 287.86C50.3919 293.004 51.5255 297.839 52.556 302.469C53.3805 306.275 54.308 310.288 53.5866 314.506C53.1744 317.078 51.6285 319.65 49.9796 322.325C48.0216 325.514 45.9605 328.806 45.8574 332.407C45.8574 333.641 45.9605 334.773 46.3727 336.008C47.7124 339.814 49.1552 341.563 50.8041 341.563C52.453 341.563 54.308 339.814 56.9874 335.596C59.5638 331.584 60.5944 326.851 61.5219 322.325C62.5524 317.798 63.4799 313.065 66.1594 308.95C71.106 301.131 79.8658 295.473 87.4919 290.329C88.1102 289.917 88.8316 289.506 89.4499 289.094C102.229 280.658 112.328 273.971 116.76 255.967C117.996 251.234 117.687 239.094 112.74 232.921C110.473 229.835 107.382 228.806 103.775 229.629ZM112.431 233.23C116.76 238.786 117.687 250.514 116.347 255.864C111.916 273.662 101.92 280.246 89.2438 288.683C88.6255 289.094 88.0071 289.506 87.2858 289.917C79.5566 294.958 70.7969 300.72 65.7471 308.641C63.0677 312.757 62.0371 317.592 61.1096 322.222C60.1821 326.748 59.1516 331.378 56.5752 335.39C54.8233 338.271 52.6591 341.152 50.8041 341.152C49.3613 341.152 48.1246 339.403 46.7849 335.905C46.3727 334.773 46.1666 333.744 46.2696 332.51C46.3727 329.115 48.4338 325.822 50.2888 322.633C51.9377 319.958 53.5866 317.386 53.9988 314.711C54.7202 310.493 53.7927 306.481 52.9683 302.571C51.9377 297.736 50.9071 293.209 52.6591 288.168C54.8233 282.201 61.9341 275.617 67.6021 270.37C69.5602 268.621 71.4152 266.872 72.858 265.329C78.423 259.567 84.1941 253.6 89.3469 247.016C90.2744 245.781 91.3049 244.135 92.4385 242.386C95.5302 237.448 99.4463 231.275 103.775 230.246C104.599 230.041 105.32 229.938 106.042 229.938C108.618 229.835 110.679 230.967 112.431 233.23Z" fill="white"/>
<path d="M108.518 207.304C106.044 203.806 103.88 203.292 101.716 202.88C100.17 202.571 98.5213 202.16 96.6663 200.822L96.5632 200.617C91.3074 194.752 73.6849 175.617 67.7076 175.617C66.9862 175.617 66.471 175.822 66.0587 176.337C65.2343 177.366 65.3374 179.423 66.1618 182.715C66.6771 184.67 71.7268 187.345 76.9826 190.123C81.414 192.489 85.9485 194.958 87.4943 196.707C88.834 198.353 90.689 200.617 90.586 201.44C90.586 201.645 90.2768 201.748 89.8646 201.954C88.9371 202.366 87.5974 203.086 88.3187 206.378C88.834 208.641 90.1738 210.802 91.6165 212.962C92.8532 215.02 94.0899 216.872 94.5021 218.724C95.8418 223.765 87.4943 233.024 82.0324 239.197C80.1774 241.254 78.6315 243.003 77.704 244.341C73.6849 249.691 68.7382 254.526 63.8946 259.259C54.5165 268.518 44.8293 278.086 41.4285 291.254C36.0696 311.007 35.039 328.394 38.1307 343.003C39.7796 350.822 45.4476 361.625 51.0126 361.625C54.4135 361.625 56.9899 357.509 58.4326 349.382C64.2037 318.106 79.9713 307.715 95.1204 297.633C108.621 288.682 121.4 280.246 126.862 258.436C128.923 250.205 125.728 237.448 121.606 230.452C119.751 227.366 117.483 225.514 115.216 223.868C113.258 222.324 111.403 220.987 109.96 218.724C108.93 217.078 109.136 215.226 109.342 213.271C109.548 211.213 109.754 209.156 108.518 207.304ZM109.342 219.032C110.888 221.399 112.743 222.839 114.804 224.382C116.968 226.028 119.235 227.777 120.987 230.761C125.007 237.654 128.201 250.102 126.14 258.23C120.678 279.835 108.105 288.168 94.7082 297.016C79.3529 307.201 63.4824 317.695 57.7112 349.279C56.2685 356.892 54.0012 360.904 51.0126 360.904C46.3751 360.904 40.604 351.131 38.8521 342.798C35.7604 328.291 36.791 311.007 41.8407 291.46C45.2415 278.497 54.8257 269.032 64.1007 259.773C68.9443 255.04 73.994 250.102 78.0132 244.752C78.9407 243.415 80.5896 241.666 82.3415 239.711C88.3188 233.024 96.3571 223.971 95.0174 218.518C94.5021 216.563 93.2654 214.608 92.0288 212.551C90.689 210.493 89.3493 208.23 88.834 206.172C88.2157 203.497 89.1432 202.983 90.0707 202.571C90.586 202.366 90.9982 202.057 91.1013 201.543C91.3074 200.822 90.7921 199.588 87.9065 196.193C86.2576 194.238 81.6201 191.769 77.1887 189.403C72.5512 186.934 67.1924 184.053 66.7801 182.407C65.7496 178.703 66.0587 177.263 66.574 176.646C66.7801 176.337 67.1924 176.234 67.6046 176.234C72.139 176.234 85.2271 188.991 95.9449 201.028C96.0479 201.131 96.151 201.234 96.151 201.234C98.2121 202.777 99.964 203.086 101.51 203.497C103.674 204.012 105.632 204.423 107.899 207.715C109.033 209.259 108.827 211.213 108.621 213.168C108.415 215.226 108.208 217.283 109.342 219.032Z" fill="white"/>
<path d="M-0.000460063 140.535C34.7293 160.185 72.2415 191.357 79.0432 206.892C83.1654 216.255 73.169 227.366 60.5962 241.46C46.2715 257.51 28.5459 277.468 27.4123 301.337C26.0726 330.555 11.5418 342.489 -0.103516 346.09V346.81C11.7479 343.209 26.6909 331.069 28.0307 301.337C29.1643 277.674 46.7868 257.818 61.0084 241.872C73.7873 227.571 83.7837 216.255 79.5584 206.584C72.8598 191.049 35.0384 159.465 -0.000460063 139.814V140.535Z" fill="white"/>
<path d="M175.09 0.10288C175.09 0 175.09 0 175.09 0.10288L174.678 0C174.059 0.720163 173.338 1.44033 172.926 2.46913C171.689 5.45267 171.998 8.64196 172.41 11.6255C172.616 13.2716 172.823 15.0205 172.72 16.7695C172.616 19.4444 171.998 22.2222 171.483 24.8971C171.071 27.1604 170.555 29.4238 170.349 31.6872C169.01 45.2674 170.246 57.6131 173.956 68.2098C174.678 70.3702 177.666 73.8682 180.861 77.469C184.88 82.0986 189.105 86.8311 189.208 89.7118C189.208 90.3291 189.105 90.8435 188.693 91.255C187.56 92.3867 184.674 92.5924 180.036 91.8723C176.636 91.3579 173.338 89.9175 170.143 88.5801C168.288 87.757 166.433 86.934 164.475 86.3167C163.96 86.111 163.341 85.9052 162.826 85.8023C156.025 83.5389 146.543 80.4525 145.204 74.9999C144.585 72.4279 145.822 69.4443 148.914 66.255C153.86 61.111 158.91 55.8641 162.414 47.8394C165.712 40.1234 169.525 25.2057 168.082 17.0782C167.773 15.4321 167.051 14.3004 166.433 13.1687C165.506 11.7284 164.681 10.3909 165.093 7.9218C165.403 6.06995 166.124 5.04114 166.742 4.11522C167.464 2.98353 168.185 1.95473 167.979 0H167.67C167.876 1.85185 167.258 2.77777 166.536 3.90946C165.918 4.83538 165.196 5.96707 164.887 7.9218C164.475 10.4938 165.403 11.9341 166.33 13.4773C166.948 14.5061 167.67 15.6378 167.979 17.181C169.422 25.2057 165.609 40.1234 162.311 47.7365C158.91 55.6583 153.86 60.9052 148.914 66.0493C145.719 69.3414 144.379 72.4279 145.101 75.1027C146.44 80.6583 155.921 83.8476 162.929 86.111C163.548 86.3167 164.063 86.5225 164.578 86.6254C166.433 87.2426 168.391 88.0657 170.246 88.8887C173.441 90.2262 176.739 91.6665 180.14 92.2838C181.995 92.5924 183.54 92.6953 184.88 92.6953C187.044 92.6953 188.384 92.2838 189.105 91.5636C189.518 91.1521 189.724 90.5348 189.724 89.8147C189.518 86.8311 185.292 81.9957 181.273 77.3661C178.181 73.7653 175.193 70.3702 174.471 68.2098C170.761 57.6131 169.628 45.3703 170.968 31.7901C171.174 29.5267 171.586 27.2633 172.101 25.1028C172.616 22.4279 173.132 19.6502 173.338 16.8724C173.441 15.1234 173.235 13.3745 173.029 11.7284C172.616 8.64196 172.307 5.65843 173.544 2.77777C173.647 1.54321 174.368 0.720163 175.09 0.10288Z" fill="white"/>
<path d="M141.289 5.76131C147.782 26.0288 154.583 47.0164 129.129 61.7283C125.316 63.8888 121.09 65.5349 116.453 66.5637C112.743 67.3867 108.724 67.7982 104.498 67.7982C69.9747 67.6954 26.8975 42.181 0 25.823V26.646C26.8975 43.004 69.8717 68.4155 104.395 68.4155C108.724 68.4155 112.743 68.004 116.556 67.181C121.193 66.1522 125.625 64.5061 129.438 62.3456C155.408 47.325 148.606 26.1316 142.011 5.55555C141.392 3.7037 140.774 1.85185 140.259 0H139.537C140.053 1.95473 140.671 3.80658 141.289 5.76131Z" fill="white"/>
<path d="M9.58417 214.197C9.06889 210.904 6.80167 207.921 2.57639 205.143C1.75194 204.526 0.824444 204.011 0 203.394V203.806C0.824444 204.32 1.64889 204.937 2.47333 205.452C6.59556 208.23 8.86278 211.11 9.37806 214.299C10.2025 219.649 6.18333 225.102 1.13361 231.275C0.824444 231.686 0.412222 232.201 0 232.715V233.229C0.515278 232.509 0.9275 231.892 1.33972 231.378C6.38944 225.205 10.5117 219.649 9.58417 214.197Z" fill="white"/>
<path d="M70.2838 1.02866C72.2418 1.95458 74.8182 3.29203 77.1885 3.29203C78.219 3.29203 79.0435 3.08627 79.7649 2.57187C79.8679 2.57187 79.8679 2.46898 79.971 2.46898C80.6924 1.8517 81.1046 1.02866 81.4138 -0.000146852H80.8985C80.5893 0.822897 80.1771 1.54306 79.5588 2.05746L79.4557 2.16034C78.8374 2.57187 78.116 2.77763 77.1885 2.77763C75.0243 2.77763 72.3449 1.44018 70.4899 0.514256C70.1807 0.411375 69.9746 0.205614 69.6654 0.102734C69.6654 0.102734 69.5624 -0.000146852 69.3563 -0.103027H68.2227L69.4593 0.514256C69.7685 0.720017 69.9746 0.925778 70.2838 1.02866Z" fill="white"/>
<path d="M18.7561 217.695C21.4356 210.185 18.7561 207.201 6.59556 199.176C5.66806 198.559 4.6375 197.942 3.71 197.222C2.47333 196.399 1.23667 195.576 0 194.753V195.164C1.13361 195.987 2.26722 196.707 3.50389 197.53C4.53444 198.148 5.46194 198.868 6.38944 199.485C18.3439 207.407 21.0233 210.39 18.4469 217.695C16.0767 224.279 11.5422 229.938 6.69861 235.905C4.43139 238.683 2.16417 241.46 0 244.547V245.061C2.26722 241.872 4.6375 238.991 6.90472 236.11C11.7483 229.938 16.3858 224.382 18.7561 217.695Z" fill="white"/>
<path d="M208.79 360.699C222.496 359.155 237.13 343.312 237.336 329.937C237.645 309.361 225.794 293.003 214.355 277.16C212.396 274.485 210.438 271.707 208.48 268.929L207.347 267.283C201.988 259.567 195.908 250.719 193.846 241.254C192.198 233.23 189.621 214.505 192.404 208.024C194.465 203.291 200.236 200.617 205.904 197.942C209.82 196.09 213.53 194.444 216.106 192.078L216.21 191.975C225.072 183.95 225.072 183.95 231.05 183.744C232.905 183.641 235.172 183.641 238.366 183.333C242.695 182.921 245.168 182.304 247.023 181.892C248.157 181.584 249.084 181.378 249.806 181.378C251.661 181.378 253.206 182.715 258.359 187.036C273.611 199.896 273.302 222.221 272.993 243.826C272.684 270.987 272.272 299.176 303.085 308.024C307.517 309.258 311.845 309.979 315.967 309.979C327.51 309.979 337.403 304.834 344.514 295.061C354.922 280.76 357.705 258.333 351.418 239.3C336.888 195.473 302.261 170.473 264.955 146.604C231.05 124.897 198.793 118.93 171.277 115.02C169.319 114.711 167.361 114.609 165.609 114.609C154.376 114.609 149.12 120.267 142.422 127.469C139.845 130.246 137.166 133.024 133.868 136.008C130.055 139.3 125.211 141.563 120.574 143.827C112.948 147.427 105.837 150.822 102.848 158.333C96.562 174.279 112.02 186.831 125.624 197.839C131.91 202.88 137.887 207.715 141.391 212.551C155.304 231.584 151.078 263.785 138.506 281.789C134.59 287.448 127.066 294.444 119.131 301.748C105.94 313.991 90.997 327.777 88.3176 339.505C87.0809 344.958 87.3901 348.764 89.3481 351.234C90.894 353.188 93.6765 354.217 97.5926 354.217C104.085 354.217 113.36 351.542 123.15 348.764C135.208 345.267 148.811 341.357 160.353 341.357C165.918 341.357 170.453 342.18 174.369 344.032C178.8 346.09 182.613 348.97 186.323 351.851C192.404 356.583 198.072 361.007 206.11 361.007C207.038 360.801 207.862 360.801 208.79 360.699ZM174.575 343.415C170.659 341.666 165.918 340.74 160.353 340.74C148.708 340.74 135.002 344.649 122.944 348.147C113.154 350.925 103.879 353.6 97.4895 353.6C93.6765 353.6 91.2031 352.674 89.6573 350.822C87.8023 348.559 87.5962 344.855 88.7298 339.608C91.3062 328.086 106.249 314.3 119.337 302.16C127.273 294.752 134.899 287.756 138.815 282.098C151.491 263.888 155.613 231.481 141.7 212.242C138.196 207.407 132.219 202.571 125.83 197.427C112.33 186.522 96.9742 174.176 103.158 158.538C106.043 151.234 113.154 147.839 120.677 144.341C125.418 142.078 130.261 139.814 134.074 136.419C137.372 133.539 140.051 130.658 142.628 127.88C149.223 120.781 154.479 115.226 165.506 115.226C167.258 115.226 169.113 115.329 171.071 115.637C198.587 119.547 230.843 125.514 264.543 147.119C301.746 170.884 336.269 195.884 350.697 239.608C356.88 258.435 354.201 280.658 343.895 294.855C336.888 304.526 327.2 309.567 315.761 309.567C311.742 309.567 307.414 308.95 303.085 307.612C289.379 303.703 280.825 295.575 276.703 282.818C272.993 271.398 273.199 257.407 273.405 243.826C273.715 222.119 273.921 199.588 258.565 186.625C251.248 180.452 251.042 180.349 246.817 181.378C244.962 181.789 242.489 182.407 238.16 182.818C234.966 183.127 232.698 183.23 230.946 183.23C224.763 183.436 224.763 183.436 215.694 191.563L215.591 191.666C213.015 193.929 209.408 195.678 205.595 197.427C199.824 200.102 193.95 202.88 191.785 207.715C188.9 214.3 191.476 233.127 193.228 241.254C195.186 250.822 201.37 259.67 206.728 267.386L207.862 269.032C209.717 271.81 211.778 274.588 213.736 277.263C225.175 293.106 236.924 309.361 236.615 329.732C236.408 342.9 221.981 358.435 208.583 359.978C207.759 360.081 206.831 360.081 206.007 360.081C198.072 360.081 192.507 355.657 186.53 351.028C182.923 348.456 179.11 345.472 174.575 343.415Z" fill="white"/>
<path d="M426.649 41.0493C425.31 41.0493 423.97 41.0493 422.733 41.0493C421.497 41.0493 420.26 41.0493 419.023 41.0493C412.015 41.0493 406.45 41.4608 400.267 43.3126C397.072 44.3414 393.981 45.7818 391.095 47.325C386.252 49.7941 381.614 52.1603 376.049 52.1603C375.122 52.1603 374.194 52.0575 373.267 51.9546C369.247 51.3373 366.156 48.9711 363.167 46.7077C359.869 44.1357 356.778 41.6665 352.346 41.6665C351.934 41.6665 351.522 41.6665 351.11 41.7694C348.43 42.0781 344.102 44.4443 339.877 46.8106C337.197 48.3538 334.621 49.7941 332.869 50.4114C330.292 51.3373 328.231 51.8517 326.789 52.1603C322.46 53.1892 321.945 53.6007 319.781 61.5225C319.162 63.683 318.75 65.7406 318.338 67.7982C316.792 75.2056 315.659 80.9669 307.723 86.6253C302.364 90.329 295.666 92.1808 287.112 92.1808C278.662 92.1808 269.799 90.4319 261.967 88.8887C257.844 88.0656 254.031 87.3455 251.146 87.0368C249.497 86.8311 246.92 86.7282 244.241 86.7282C236.718 86.7282 227.855 89.506 227.237 93.4154C226.928 95.2673 228.371 98.1479 237.13 100.926L238.058 101.234C271.139 111.831 294.12 125.617 317.617 148.868C324.109 155.247 329.056 158.23 333.178 158.23C334.105 158.23 335.136 158.024 335.96 157.716C340.392 156.07 343.587 150.514 347.297 144.135C349.255 140.843 351.419 137.037 353.995 133.436C366.465 115.946 384.293 103.086 404.286 97.4278C410.16 95.7817 415.932 94.8557 421.393 94.8557C439.222 94.8557 451.795 103.601 463.646 112.551V111.934C451.795 102.983 439.222 94.4442 421.393 94.4442C415.932 94.4442 410.057 95.2673 404.183 97.0162C384.087 102.778 366.156 115.638 353.583 133.23C351.007 136.831 348.842 140.638 346.884 143.93C343.174 150.308 340.083 155.761 335.857 157.304C335.033 157.613 334.105 157.819 333.178 157.819C329.159 157.819 324.315 154.835 318.029 148.559C294.532 125.205 271.448 111.42 238.264 100.72L237.336 100.411C230.844 98.3537 227.443 95.8846 227.855 93.5183C228.371 90.2261 236.203 87.2426 244.344 87.2426C246.92 87.2426 249.497 87.3455 251.146 87.5512C254.031 87.8599 257.844 88.58 261.967 89.4031C269.799 90.9463 278.765 92.7981 287.215 92.7981C295.872 92.7981 302.777 90.9463 308.135 87.1397C316.174 81.4813 317.41 75.5142 318.956 68.0039C319.369 66.0492 319.781 63.9916 320.399 61.8311C322.46 53.9093 322.872 53.8064 326.995 52.7776C328.437 52.469 330.395 51.9546 333.075 51.0287C334.93 50.3085 337.506 48.8682 340.186 47.4278C344.102 45.1645 348.636 42.6953 351.213 42.3867C351.625 42.3867 352.037 42.2838 352.346 42.2838C356.572 42.2838 359.663 44.6501 362.858 47.2221C365.847 49.5883 368.938 52.0575 373.164 52.6747C374.091 52.7776 375.018 52.8805 375.946 52.8805C381.614 52.8805 386.458 50.4114 391.198 48.0451C394.084 46.6048 397.072 45.0616 400.267 44.0328C406.347 42.1809 411.912 41.7694 418.92 41.7694C420.157 41.7694 421.393 41.7694 422.63 41.7694C423.97 41.7694 425.207 41.7694 426.649 41.7694C432.936 41.7694 438.604 42.4896 443.86 44.0328C450.558 45.9875 457.154 48.5595 463.646 51.7488V51.1315C457.154 48.0451 450.558 45.4731 443.963 43.5184C438.707 41.8723 433.039 41.0493 426.649 41.0493Z" fill="white"/>
<path d="M426.65 51.4399C417.993 51.4399 408.718 52.9831 399.031 54.6292C388.004 56.4811 376.668 58.4358 364.507 58.4358C363.683 58.4358 362.755 58.4358 361.931 58.4358C357.706 58.3329 354.202 57.6128 351.007 56.9955C348.327 56.4811 345.957 55.9667 343.69 55.9667C338.331 55.9667 334.415 58.7445 330.087 65.6374C328.026 68.9296 326.48 72.942 325.037 76.7485C322.461 83.5386 319.781 90.5345 313.907 94.7526C311.846 96.1929 307.93 97.3246 303.807 98.4563C296.594 100.514 288.452 102.88 287.319 107.716C285.979 113.786 298.449 122.119 305.147 126.646C306.384 127.469 307.517 128.189 308.239 128.703C316.174 134.464 322.667 138.374 328.85 138.374C329.674 138.374 330.499 138.271 331.323 138.168C336.27 137.242 340.804 133.744 345.442 127.16C359.251 107.716 379.141 93.5181 401.401 87.1395C408.203 85.1847 415.004 84.1559 421.394 84.1559C439.222 84.1559 452.311 91.3576 463.647 99.2794V98.8678C452.311 90.946 439.222 83.7444 421.394 83.7444C414.901 83.7444 408.203 84.7732 401.298 86.7279C378.935 93.1065 359.045 107.407 345.236 126.851C340.598 133.436 336.167 136.831 331.323 137.757C330.499 137.86 329.674 137.962 328.85 137.962C322.77 137.962 316.277 134.156 308.445 128.395C307.724 127.88 306.693 127.16 305.353 126.337C298.655 121.913 286.288 113.683 287.628 107.818C288.658 103.189 296.8 100.823 303.911 98.765C308.033 97.6333 311.949 96.5016 314.01 94.9584C319.987 90.7403 322.667 83.6415 325.243 76.8514C326.686 73.0448 328.232 69.0325 330.293 65.7403C334.518 58.9502 338.434 56.1724 343.587 56.1724C345.854 56.1724 348.121 56.584 350.801 57.2012C353.996 57.8185 357.499 58.5387 361.725 58.6416C362.549 58.6416 363.477 58.6416 364.301 58.6416C376.462 58.6416 387.798 56.6868 398.825 54.835C408.615 53.1889 417.787 51.6457 426.444 51.6457C431.802 51.6457 436.543 52.263 440.871 53.4976C448.394 55.658 455.814 58.8473 463.544 62.7568V62.4482C455.917 58.6416 448.497 55.4523 440.974 53.2918C436.852 52.0572 432.112 51.4399 426.65 51.4399Z" fill="white"/>
<path d="M200.752 417.18C198.175 421.089 194.877 426.028 196.011 429.32C196.423 430.657 197.66 431.686 199.412 432.406C199.721 432.509 200.133 432.612 200.545 432.612C204.565 432.612 210.851 426.439 216.416 421.089C219.92 417.694 223.321 414.402 225.279 413.476C234.863 409.155 248.157 407.098 259.802 405.246C264.44 404.526 268.768 403.806 272.787 403.085C281.959 401.336 290.822 400.411 299.067 400.411C326.17 400.411 349.048 410.184 366.774 429.423C368.732 431.583 371.721 432.715 375.431 432.715C387.076 432.715 406.966 421.398 421.084 400.513C429.535 387.962 441.695 362.345 429.02 331.583C423.97 319.238 416.344 313.477 405.214 313.477C396.763 313.477 387.076 316.563 375.843 320.164C362.033 324.588 346.472 329.629 329.674 329.629C316.586 329.629 304.632 326.645 292.986 320.472C257.123 301.337 256.092 266.563 259.184 238.374C260.421 227.366 258.463 218.724 253.516 213.271C250.012 209.464 245.375 207.407 239.913 207.407C229.607 207.407 216.622 215.431 211.985 230.761C207.553 245.164 217.962 258.333 230.019 273.456C243.623 290.534 258.978 309.979 255.989 335.904C254.547 348.765 249.806 361.11 243.417 368.826C238.573 374.69 234.245 375.308 229.813 375.822C226.309 376.234 222.805 376.645 218.58 379.32C215.385 381.378 214.355 384.773 213.324 388.476C212.603 390.946 211.882 393.62 210.336 395.781C209.511 396.913 208.068 397.221 206.42 397.427C204.358 397.736 202.091 398.147 200.855 400.822C200.03 402.674 201.164 404.834 202.194 406.892C203.122 408.641 204.049 410.493 203.74 411.933C203.431 412.962 202.194 414.917 200.752 417.18ZM202.607 406.48C201.576 404.423 200.545 402.468 201.267 400.925C202.4 398.559 204.462 398.25 206.42 397.839C208.068 397.53 209.717 397.324 210.645 395.884C212.294 393.62 213.015 391.048 213.737 388.476C214.767 384.978 215.695 381.583 218.786 379.629C222.908 377.057 226.412 376.645 229.813 376.234C234.451 375.616 238.882 375.102 243.829 369.032C250.321 361.11 255.062 348.765 256.505 335.802C259.493 309.67 244.035 290.123 230.432 272.942C218.477 257.921 208.172 244.855 212.5 230.761C217.034 215.74 229.71 207.818 239.81 207.818C245.065 207.818 249.703 209.773 253.001 213.477C257.741 218.826 259.699 227.366 258.463 238.168C255.371 266.563 256.402 301.645 292.574 320.884C304.322 327.16 316.38 330.143 329.571 330.143C346.472 330.143 362.137 325.102 375.946 320.678C387.076 317.077 396.763 313.991 405.111 313.991C416.138 313.991 423.248 319.444 428.298 331.686C440.871 362.139 428.813 387.55 420.466 399.999C407.069 420.061 386.973 431.995 375.328 431.995C371.721 431.995 369.041 430.966 367.083 428.908C349.152 409.567 326.273 399.69 298.86 399.69C290.513 399.69 281.65 400.616 272.375 402.365C268.356 403.188 264.028 403.806 259.39 404.526C247.642 406.378 234.348 408.435 224.66 412.859C222.599 413.785 219.302 416.974 215.592 420.575C210.13 425.925 203.946 431.995 200.133 431.995C199.824 431.995 199.515 431.995 199.206 431.892C197.557 431.275 196.526 430.452 196.114 429.217C195.083 426.131 198.278 421.398 200.752 417.592C202.297 415.328 203.534 413.373 203.843 412.036C204.565 410.184 203.637 408.229 202.607 406.48Z" fill="white"/>
<path d="M215.386 406.378C216.004 406.583 217.241 406.686 218.683 406.686C221.775 406.686 233.42 406.172 251.558 400.205C266.707 395.164 284.433 392.489 301.54 392.489C329.571 392.489 348.224 396.707 372.236 419.649C373.988 421.295 376.255 422.118 379.038 422.118C389.446 422.118 405.214 410.802 415.004 396.295C422.63 384.979 433.657 361.933 422.218 334.258C417.271 322.427 411.191 320.781 405.214 320.781C397.897 320.781 388.725 323.765 378.11 327.16C363.786 331.789 347.606 336.933 329.674 336.933C315.349 336.933 302.261 333.641 289.482 326.851C249.291 305.452 248.776 265.534 251.867 237.448C252.795 228.703 251.455 221.81 248.054 218.004C245.993 215.74 243.211 214.506 239.913 214.506C232.287 214.506 222.702 220.781 218.992 232.613C215.695 243.415 224.97 255.041 235.791 268.621C249.497 285.905 266.604 307.51 263.306 336.419C262.379 344.649 260.112 352.571 256.711 359.773C251.249 371.295 244.138 381.069 235.378 388.888C229.607 394.032 223.836 397.633 219.611 400.205C215.798 402.571 213.427 404.011 213.634 405.143C213.737 405.657 214.252 406.069 215.386 406.378ZM219.817 400.513C224.042 397.941 229.813 394.341 235.584 389.197C244.344 381.378 251.558 371.604 257.02 359.979C260.421 352.674 262.688 344.752 263.616 336.522C266.913 307.51 249.806 285.905 235.997 268.518C225.279 255.041 216.107 243.415 219.302 232.818C222.909 221.09 232.39 214.917 239.913 214.917C243.211 214.917 245.89 216.049 247.848 218.312C251.249 222.016 252.486 228.806 251.558 237.448C248.466 265.637 248.982 305.658 289.379 327.16C302.158 333.95 315.349 337.242 329.674 337.242C347.709 337.242 363.889 331.995 378.213 327.365C388.828 323.97 397.897 320.987 405.214 320.987C410.985 320.987 417.065 322.633 421.909 334.361C433.245 361.83 422.218 384.773 414.695 396.09C405.214 410.287 389.24 421.81 379.038 421.81C376.358 421.81 374.091 420.987 372.442 419.443C360.797 408.332 349.976 401.234 338.331 397.221C328.334 393.723 317.307 392.283 301.54 392.283C284.433 392.283 266.707 395.061 251.455 400.102C233.317 406.069 221.775 406.583 218.683 406.583C217.241 406.583 216.004 406.481 215.386 406.378C214.458 406.172 213.943 405.863 213.84 405.452C213.84 404.217 216.313 402.674 219.817 400.513Z" fill="white"/>
<path d="M239.911 221.605C234.346 221.605 228.266 227.16 226.308 232.201C224.968 235.493 225.999 241.152 228.987 247.428C231.77 253.292 235.583 257.716 238.366 258.539C238.778 258.642 239.19 258.744 239.602 258.744C240.118 258.744 240.53 258.642 240.942 258.539C244.549 257.304 244.446 255.144 244.24 250.308C244.137 247.325 243.931 243.312 244.549 237.757C245.373 230.247 244.24 224.588 242.591 222.839C242.282 222.119 241.56 221.605 239.911 221.605ZM244.24 237.551C243.621 243.21 243.724 247.222 243.931 250.205C244.137 255.041 244.137 256.79 240.942 257.921C240.221 258.23 239.396 258.23 238.572 257.921C235.892 257.098 232.285 252.777 229.503 247.016C226.514 240.946 225.587 235.391 226.823 232.201C228.781 227.366 234.656 221.913 239.911 221.913C241.354 221.913 241.972 222.325 242.385 222.839C243.931 224.691 244.961 230.247 244.24 237.551Z" fill="white"/>
<path d="M191.579 0H190.858C189.312 5.55555 188.178 11.6255 187.457 18.3127C186.323 29.9382 185.293 45.0616 187.663 59.7736C189.415 70.4731 192.919 75.2056 198.999 75.2056C202.915 75.2056 207.347 73.3538 212.602 71.1933C216.209 69.6501 220.022 68.1069 223.939 66.9752C224.351 66.8723 224.66 66.7694 225.072 66.6666C236.511 63.5801 249.393 63.1686 262.997 65.432C266.707 66.0493 270.417 67.0781 273.92 68.004C279.176 69.4443 284.535 70.9875 290.1 71.1933C293.089 71.2962 295.15 70.9875 296.696 70.2674C301.127 68.1069 298.963 62.6542 296.696 56.8929C295.356 53.4978 294.016 49.9999 293.707 46.8106C292.471 30.0411 301.849 14.7119 314.318 0.10288H313.391C301.024 14.7119 291.852 30.0411 292.986 46.8106C293.192 50.1028 294.635 53.7036 295.974 57.0987C298.242 62.7571 300.097 67.6954 296.284 69.5472C294.944 70.2674 292.883 70.4731 289.997 70.3702C284.535 70.1645 279.176 68.6213 274.024 67.181C270.417 66.1522 266.707 65.1233 262.997 64.6089C249.29 62.3456 236.305 62.86 224.763 65.9464C224.351 66.0493 223.939 66.1521 223.629 66.255C219.61 67.3867 215.797 68.9299 212.19 70.4731C207.037 72.6336 202.606 74.4855 198.896 74.4855C193.228 74.4855 190.033 69.9587 188.281 59.6707C185.911 45.0616 186.942 29.9382 188.075 18.4156C188.797 11.6255 189.93 5.55555 191.579 0Z" fill="white"/>
<path d="M169.732 203.189C170.659 203.189 171.278 201.954 171.999 199.176C174.575 188.683 183.129 174.794 196.423 167.386C209.82 159.876 218.786 157.921 223.63 156.892C226 156.378 227.237 156.069 227.546 155.452C227.649 155.246 227.649 154.938 227.443 154.629C226.515 152.983 209.923 143.621 185.912 141.769L184.881 141.666C182.717 141.46 180.862 141.358 179.11 141.358C172.823 141.358 167.877 143.107 156.128 152.983C154.273 154.526 152.418 155.967 150.563 157.407C144.895 161.728 139.949 165.534 140.258 169.753C140.464 173.045 143.762 176.234 150.46 179.938C157.88 184.053 162.415 192.18 165.403 197.53C167.258 200.925 168.495 203.189 169.732 203.189ZM150.563 179.629C144.071 176.028 140.773 172.736 140.464 169.65C140.155 165.534 144.998 161.831 150.563 157.51C152.418 156.069 154.273 154.629 156.128 153.086C167.774 143.209 172.823 141.46 178.904 141.46C180.656 141.46 182.511 141.563 184.675 141.769L185.705 141.872C209.099 143.724 226.103 152.983 226.928 154.629C227.134 154.938 227.031 155.144 227.031 155.246C226.825 155.761 225.485 155.967 223.424 156.481C218.58 157.51 209.614 159.465 196.114 166.975C182.717 174.382 174.163 188.374 171.587 198.971C170.968 201.543 170.35 202.777 169.629 202.777C168.598 202.777 167.258 200.308 165.507 197.325C162.621 191.975 158.087 183.744 150.563 179.629Z" fill="white"/>
<path d="M171.691 220.884C172.618 220.884 173.236 219.855 173.649 217.489C176.328 203.292 182.099 183.23 201.474 172.53C207.451 169.238 214.252 166.563 222.188 164.506C223.734 164.094 225.485 162.962 227.134 161.831C229.299 160.39 231.463 158.95 233.524 158.95C233.73 158.95 234.039 158.95 234.245 159.053C235.379 159.259 236.203 159.876 237.028 160.596C237.955 161.316 238.883 162.037 240.016 162.037C240.429 162.037 240.944 161.934 241.459 161.728C242.284 161.419 242.799 160.699 243.211 160.082C243.829 159.156 244.448 158.333 246.2 158.436C247.952 158.539 248.879 159.876 249.91 161.316C250.631 162.345 251.352 163.271 252.383 163.888C253.104 164.3 254.444 164.711 255.681 164.711C256.505 164.711 257.124 164.506 257.433 164.094C257.742 163.683 257.845 163.065 257.639 162.345C256.917 159.876 251.765 157.613 248.261 156.172C247.23 155.761 246.406 155.349 245.787 155.041C240.635 152.366 235.585 150 231.154 148.148C212.913 140.123 196.218 135.288 180.244 133.23C178.492 133.024 176.843 132.921 175.504 132.921C167.671 132.921 161.488 136.316 149.43 147.633C146.442 150.411 143.35 152.777 140.465 155.041C133.869 160.185 128.613 164.3 128.716 169.341C128.819 173.353 132.323 177.674 139.743 182.921C151.698 191.255 159.633 204.012 164.889 212.448C167.98 217.386 170.145 220.884 171.691 220.884ZM139.743 182.51C132.426 177.366 128.922 173.148 128.819 169.238C128.716 164.3 133.869 160.288 140.465 155.144C143.453 152.88 146.545 150.411 149.534 147.736C161.591 136.522 167.671 133.127 175.4 133.127C176.843 133.127 178.389 133.23 180.141 133.436C196.115 135.493 212.707 140.329 230.947 148.251C235.276 150.102 240.429 152.469 245.478 155.144C246.097 155.452 246.921 155.864 247.952 156.275C251.352 157.716 256.505 159.979 257.124 162.242C257.33 162.86 257.227 163.374 257.02 163.683C256.711 164.094 255.99 164.197 255.578 164.197C254.547 164.197 253.207 163.786 252.486 163.374C251.559 162.86 250.837 161.831 250.116 160.905C249.085 159.465 248.055 158.024 246.2 157.921C244.242 157.716 243.623 158.744 243.005 159.67C242.593 160.288 242.18 160.905 241.356 161.214C240.841 161.419 240.429 161.522 240.016 161.522C238.883 161.522 238.058 160.905 237.234 160.185C236.409 159.567 235.482 158.847 234.245 158.641C234.039 158.641 233.73 158.539 233.524 158.539C231.36 158.539 229.092 160.082 226.928 161.522C225.176 162.654 223.63 163.786 222.085 164.197C214.149 166.255 207.348 168.93 201.37 172.222C181.893 183.024 176.019 203.189 173.339 217.386C172.927 219.444 172.412 220.473 171.691 220.473C170.351 220.473 168.084 216.975 164.992 212.036C159.736 203.6 151.698 190.946 139.743 182.51Z" fill="white"/>
<path d="M209.717 349.896C216.725 349.073 223.424 344.238 226.618 337.551C229.607 331.481 231.153 321.09 221.981 306.481C218.065 300.205 213.736 293.826 209.614 287.653C197.763 270.061 186.53 253.497 181.995 236.831C176.739 218.003 180.965 202.468 195.186 187.962C207.553 175.411 223.836 168.209 239.913 168.209C251.97 168.209 262.791 172.427 270.314 180.143C278.558 188.58 282.681 201.028 282.165 215.946C282.062 219.444 281.856 223.045 281.753 226.851C281.135 240.328 280.413 255.658 282.578 268.415C285.051 283.024 291.028 292.077 300.818 296.09C306.074 298.25 311.021 299.279 315.555 299.279C323.8 299.279 330.808 295.678 335.857 288.888C344.411 277.365 346.472 257.509 341.01 239.608C329.159 201.131 300.818 178.189 258.772 153.6C226.824 134.979 199.927 129.115 175.503 125.72C173.648 125.411 171.999 125.308 170.35 125.308C160.148 125.308 155.304 130.452 149.224 137.036C146.853 139.506 144.483 142.181 141.391 144.855C137.888 147.942 134.899 149.794 132.219 151.44C127.891 154.115 124.181 156.378 120.162 162.448C112.021 174.588 122.944 181.995 134.384 189.814C140.464 193.929 146.75 198.25 150.048 203.292C171.174 235.184 162.621 269.238 147.678 290.534C143.349 296.604 137.166 302.365 130.468 308.435C122.326 315.843 113.979 323.559 109.135 332.098C107.074 335.802 106.456 338.271 107.383 339.711C108.001 340.74 109.444 341.254 111.608 341.254C115.524 341.254 121.811 339.608 129.128 337.756C139.33 335.081 152.006 331.789 163.239 331.789C169.216 331.789 174.266 332.715 178.388 334.567C182.511 336.419 185.911 339.094 189.312 341.666C194.774 345.987 200.03 349.999 207.347 349.999C208.171 350.102 208.893 349.999 209.717 349.896ZM178.491 334.361C174.266 332.406 169.319 331.481 163.239 331.481C152.006 331.481 139.227 334.773 129.025 337.448C121.811 339.299 115.524 340.946 111.608 340.946C109.547 340.946 108.208 340.431 107.589 339.505C106.765 338.168 107.383 335.699 109.341 332.201C114.082 323.662 122.532 316.048 130.571 308.641C137.166 302.571 143.453 296.81 147.781 290.74C156.541 278.291 161.796 264.094 162.827 249.691C163.961 233.23 159.735 217.592 150.254 203.189C146.853 198.045 140.567 193.724 134.487 189.608C123.151 181.892 112.433 174.485 120.368 162.654C124.387 156.584 128.097 154.32 132.323 151.748C135.002 150.102 138.094 148.25 141.598 145.164C144.586 142.489 147.059 139.917 149.43 137.345C155.51 130.864 160.354 125.72 170.35 125.72C171.896 125.72 173.648 125.823 175.4 126.131C199.721 129.526 226.618 135.288 258.566 154.012C300.509 178.6 328.849 201.44 340.701 239.814C346.163 257.612 344.102 277.365 335.651 288.888C330.704 295.575 323.697 299.176 315.555 299.176C311.021 299.176 306.177 298.147 300.921 295.987C291.234 292.077 285.36 283.127 282.887 268.518C280.723 255.761 281.444 240.534 282.062 226.954C282.268 223.147 282.371 219.547 282.474 216.049C282.887 201.028 278.764 188.477 270.52 179.938C262.997 172.119 252.073 167.901 239.913 167.901C223.733 167.901 207.347 175.102 194.98 187.757C187.457 195.473 182.717 203.394 180.656 212.036C178.801 219.752 179.11 227.88 181.686 236.831C186.324 253.497 197.557 270.164 209.408 287.756C213.53 293.929 217.859 300.205 221.775 306.583C230.844 321.09 229.298 331.378 226.412 337.345C223.218 343.929 216.725 348.662 209.717 349.485C208.893 349.588 208.171 349.588 207.347 349.588C200.133 349.588 194.98 345.575 189.518 341.357C186.118 338.888 182.614 336.213 178.491 334.361Z" fill="white"/>
<path d="M301.024 239.609C299.993 255.658 304.631 266.769 309.268 271.81C311.433 274.074 313.803 275.308 315.864 275.308C318.853 275.308 321.12 272.942 322.253 268.724C329.261 241.152 305.352 212.14 302.364 209.67C301.539 208.95 300.921 208.847 300.509 209.259C299.787 209.979 299.993 212.448 300.406 216.975C300.921 222.222 301.642 230.247 301.024 239.609ZM300.921 209.67C301.024 209.568 301.024 209.568 301.127 209.568C301.23 209.568 301.539 209.67 302.055 210.082C304.94 212.448 328.746 241.255 321.738 268.518C320.708 272.53 318.647 274.794 315.864 274.794C313.906 274.794 311.639 273.559 309.578 271.399C304.94 266.46 300.406 255.555 301.436 239.609C302.055 230.144 301.333 222.222 300.921 216.872C300.612 213.065 300.406 210.185 300.921 209.67Z" fill="white"/>
<path d="M426.649 58.6418C418.61 58.6418 409.645 60.1851 400.164 61.7283C388.827 63.683 377.182 65.6377 364.506 65.6377C363.579 65.6377 362.651 65.6377 361.724 65.6377C361.002 65.6377 360.178 65.6377 359.457 65.5348C357.499 65.432 355.747 65.432 353.995 65.432C343.071 65.432 336.269 67.6953 331.735 79.4237C328.952 86.8311 325.654 95.2673 318.028 100.72C315.864 102.263 313.7 103.601 311.742 104.732C307.311 107.407 303.807 109.568 303.601 112.448C303.497 115.123 306.177 118.415 312.463 122.942C318.441 127.366 323.387 129.424 327.509 129.424C327.922 129.424 328.231 129.424 328.643 129.424C334.62 128.909 338.742 123.868 343.792 117.592C346.162 114.712 348.739 111.522 351.83 108.436C365.228 95.0615 381.614 85.2879 399.442 80.2468C406.965 78.1891 414.385 77.1603 421.496 77.1603C439.015 77.1603 452.516 83.5389 463.749 90.8434V90.4319C452.516 83.1274 439.015 76.8517 421.496 76.8517C414.385 76.8517 406.965 77.9834 399.442 80.041C381.614 85.0821 365.125 94.8558 351.727 108.333C348.636 111.42 345.956 114.712 343.689 117.489C338.639 123.765 334.62 128.601 328.746 129.218C328.437 129.218 328.025 129.218 327.612 129.218C323.49 129.218 318.647 127.057 312.772 122.736C306.589 118.21 303.91 115.123 304.013 112.448C304.116 109.671 307.62 107.613 311.948 104.938C313.906 103.806 316.07 102.469 318.234 100.926C325.964 95.4731 329.261 86.934 332.044 79.5266C336.475 67.9011 343.174 65.7406 353.995 65.7406C355.747 65.7406 357.602 65.7406 359.457 65.8435C360.178 65.8435 360.899 65.8435 361.724 65.9464C362.651 65.9464 363.579 65.9464 364.506 65.9464C377.285 65.9464 388.93 63.9916 400.267 62.0369C409.748 60.3908 418.61 58.9505 426.649 58.9505C431.286 58.9505 435.409 59.4649 439.119 60.4937C447.157 62.7571 455.298 66.4608 463.749 70.8846V70.576C455.298 66.255 447.157 62.5513 439.222 60.2879C435.512 59.1562 431.389 58.6418 426.649 58.6418Z" fill="white"/>
<path d="M293.089 238.682C291.852 254.32 294.944 266.975 301.745 274.279C305.352 278.086 309.681 280.246 314.009 280.246C320.295 280.246 325.242 275.925 326.685 269.238C331.013 249.691 324.315 231.995 317.925 220.678C310.402 207.407 300.818 197.942 296.18 194.855C294.532 193.724 293.295 193.003 292.573 193.003C292.264 193.003 292.058 193.106 291.955 193.312C291.337 194.032 291.646 195.884 292.058 199.691C292.986 206.275 294.532 218.826 293.089 238.682ZM292.161 193.415C292.264 193.312 292.367 193.209 292.573 193.209C293.192 193.209 294.428 193.929 295.974 194.958C306.383 201.954 334.208 233.641 326.376 269.032C324.933 275.616 320.089 279.835 313.906 279.835C309.578 279.835 305.352 277.777 301.848 273.97C295.15 266.666 292.058 254.114 293.192 238.682C294.738 218.826 293.089 206.275 292.264 199.588C291.955 196.09 291.749 194.032 292.161 193.415Z" fill="white"/>
<path d="M287.112 239.711C285.875 259.156 289.688 274.485 297.623 282.921C301.746 287.242 306.692 289.608 312.051 289.608C322.254 289.608 330.91 281.378 333.59 269.135C337.506 251.028 334.105 233.23 323.594 216.255C312.876 198.971 298.036 187.86 290.1 182.716C286.081 180.144 284.329 179.012 283.711 179.835C283.196 180.452 283.505 182.407 284.226 186.111C285.669 194.032 288.864 210.802 287.112 239.711ZM283.917 179.938C284.02 179.835 284.123 179.835 284.329 179.835C285.154 179.835 287.009 180.967 289.997 182.921C316.277 199.999 341.525 231.584 333.384 269.032C330.704 281.172 322.254 289.3 312.154 289.3C306.899 289.3 301.952 287.036 297.933 282.715C289.997 274.382 286.39 259.053 287.524 239.711C289.276 210.802 286.081 194.032 284.535 185.905C283.814 182.51 283.402 180.452 283.917 179.938Z" fill="white"/>
<path d="M168.495 175.103C171.381 175.103 173.545 172.325 175.709 168.107C179.625 160.699 187.767 157.201 192.198 155.247C194.465 154.321 195.29 153.909 195.187 153.292C195.084 152.778 194.568 152.572 191.477 152.366C182.305 151.749 161.9 160.391 159.529 166.975C159.014 168.518 159.426 169.856 160.663 170.987C164.167 173.868 166.537 175.103 168.495 175.103ZM160.148 167.284C162.312 161.317 181.377 153.086 190.446 153.086C190.755 153.086 191.064 153.086 191.374 153.086C193.126 153.189 193.95 153.292 194.259 153.395C193.847 153.703 192.816 154.115 191.889 154.526C187.457 156.481 179.11 160.082 175.091 167.695C172.514 172.428 170.659 174.382 168.495 174.382C166.64 174.382 164.476 173.148 161.075 170.37C160.045 169.547 159.736 168.518 160.148 167.284Z" fill="white"/>
<path d="M177.462 174.794C184.47 162.036 197.351 157.613 207.657 155.143C208.688 154.938 208.791 154.423 208.688 154.115C208.481 152.057 198.691 148.045 184.16 148.045C182.511 148.045 180.863 148.045 179.214 148.148C172.618 148.559 156.954 157.818 151.286 164.608C149.843 166.357 149.121 167.901 149.328 169.032C149.74 171.913 152.213 173.148 155.202 174.588C158.293 176.131 161.797 177.88 163.549 181.995C164.58 184.361 165.816 185.596 167.465 185.596C170.248 185.493 173.546 181.892 177.462 174.794ZM164.065 181.789C162.313 177.571 158.706 175.72 155.511 174.176C152.728 172.736 150.255 171.604 149.946 169.032C149.843 168.106 150.461 166.666 151.801 165.02C157.366 158.23 172.824 149.176 179.317 148.765C180.966 148.662 182.615 148.662 184.263 148.662C198.485 148.662 208.069 152.571 208.275 154.218C208.275 154.526 207.863 154.629 207.657 154.732C197.145 157.201 184.16 161.728 177.05 174.691C171.072 185.287 166.641 187.859 164.065 181.789Z" fill="white"/>
<path d="M229.814 29.4238C231.153 29.4238 232.802 29.2181 234.657 28.8065C236.512 28.395 238.367 27.9835 240.016 27.7777C242.799 27.3662 245.478 27.2633 247.848 27.1604C250.528 26.9547 253.001 26.2345 255.268 24.8971C264.853 19.3415 268.872 7.81892 270.108 3.18929C270.521 2.05761 270.83 1.0288 271.036 0H270.727C270.418 0.925924 270.108 1.95473 269.799 3.08641C268.563 7.71603 264.543 19.0329 255.062 24.5884C252.795 25.9259 250.425 26.646 247.745 26.7489C245.375 26.8518 242.696 27.0576 239.913 27.3662C238.264 27.572 236.512 27.9835 234.554 28.395C232.699 28.8065 231.05 29.0123 229.711 29.0123C227.443 29.0123 225.795 28.395 224.867 27.2633C223.424 25.5144 223.218 22.3251 224.249 17.2839L224.455 16.4609C225.795 9.465 228.165 4.11522 231.875 0H231.463C227.856 4.2181 225.485 9.56788 224.146 16.4609L223.94 17.2839C222.909 22.4279 223.115 25.7201 224.661 27.572C225.795 28.8065 227.443 29.4238 229.814 29.4238Z" fill="white"/>
<path d="M231.771 18.6214C232.595 20.1646 234.244 20.9876 236.821 20.9876C237.542 20.9876 238.263 20.8848 238.985 20.7819C241.973 20.3704 244.859 20.1646 247.332 20.0617C248.054 20.0617 248.775 19.856 249.393 19.7531C250.115 19.5473 250.836 19.2387 251.558 18.8272C257.123 15.535 263.718 5.96709 263.924 0.102905H263.409C263.203 5.76133 256.607 15.3292 251.248 18.4156C250.63 18.8272 249.909 19.0329 249.187 19.2387C248.569 19.4444 247.848 19.5473 247.126 19.5473C244.653 19.6502 241.767 19.856 238.779 20.2675C235.172 20.7819 232.905 20.0617 231.977 18.4156C230.74 16.0494 232.183 11.6255 235.687 6.68726C237.542 4.01236 240.118 1.85187 243.519 0.102905H242.489C239.397 1.85187 237.027 3.90948 235.275 6.37862C231.874 11.4198 230.534 16.0494 231.771 18.6214Z" fill="white"/>
<path d="M207.76 374.176C223.116 372.427 241.356 354.217 246.303 340.328C254.857 316.151 239.707 296.707 225.074 277.88C210.955 259.773 197.661 242.592 204.153 221.707C209.821 203.497 228.062 193.724 242.387 193.724C250.116 193.724 256.712 196.502 261.143 201.44C266.399 207.304 268.46 216.255 267.12 227.263C262.483 265.123 261.143 306.584 303.499 318.826C308.342 320.267 313.186 320.987 317.721 320.987C335.549 320.987 346.885 310.802 353.275 302.263C365.538 285.905 369.764 261.316 363.889 241.255C358.84 224.176 348.946 207.715 333.591 190.74C310.816 165.534 279.796 143.827 238.677 124.485L236.925 123.662C219.612 115.535 201.783 107.098 183.027 102.469C181.893 102.16 180.657 101.851 179.317 101.543C173.546 99.9996 166.229 98.0449 160.046 98.0449C157.572 98.0449 155.408 98.3536 153.656 98.9708C150.977 99.8968 149.431 101.749 147.988 103.498C146.854 104.835 145.824 106.172 144.175 107.201C143.144 107.819 141.083 108.642 138.919 109.465C135.415 110.802 131.808 112.242 130.675 113.477C128.511 116.049 129.129 117.592 129.644 119.135C130.056 120.164 130.469 121.193 129.953 122.736L129.541 123.971C126.449 133.127 126.449 133.127 119.236 135.185C117.896 135.596 116.144 136.111 114.083 136.728C108.106 138.58 105.735 141.563 103.365 144.341C101.51 146.502 99.8611 148.559 96.6664 150.205C96.5633 150.205 96.4603 150.205 96.3572 150.205C92.6472 150.205 64.513 152.057 62.3489 158.95C61.7305 160.802 63.0702 162.86 66.0589 164.917C69.8719 167.592 72.8605 167.901 74.7155 167.901C75.643 167.901 76.4675 167.798 77.1889 167.695C77.9103 167.592 78.5286 167.592 79.1469 167.592C81.4141 167.592 83.6814 168.209 86.8761 175.925C87.5975 177.777 88.2158 179.423 88.7311 180.658C91.2044 187.037 91.2044 187.139 97.3878 189.711C98.9336 190.329 100.789 191.152 103.262 192.283C111.197 195.987 112.846 200.102 114.907 205.349C116.041 208.127 117.277 211.316 119.545 214.814C122.018 218.621 125.007 221.707 127.789 224.588C132.839 229.835 137.579 234.773 139.125 243.003C141.702 257.304 133.972 270.987 125.213 283.641C120.987 289.814 112.228 296.913 102.85 304.423C87.0822 317.283 69.2536 331.789 69.1505 345.267C69.1505 352.983 71.1086 358.847 75.0247 362.756C79.353 367.077 85.8455 369.135 94.9144 369.135C108.106 369.135 124.388 364.711 138.713 360.802C150.049 357.715 159.736 355.04 166.023 355.04C167.466 355.04 168.599 355.143 169.527 355.452C175.504 357.201 180.347 361.007 184.882 364.711C190.962 369.546 196.733 374.176 205.081 374.176C206.008 374.382 206.936 374.279 207.76 374.176ZM169.836 354.835C168.805 354.526 167.569 354.423 166.126 354.423C159.839 354.423 150.049 357.098 138.713 360.184C124.388 364.094 108.209 368.518 95.1205 368.518C86.1547 368.518 79.8683 366.46 75.7461 362.345C71.933 358.538 70.078 352.777 70.078 345.37C70.1811 332.201 87.9066 317.798 103.468 305.143C112.743 297.53 121.606 290.431 125.934 284.156C134.797 271.398 142.629 257.612 140.053 243.003C138.507 234.567 133.663 229.526 128.511 224.176C125.728 221.296 122.739 218.209 120.266 214.506C117.999 211.008 116.762 207.921 115.629 205.143C113.464 199.691 111.816 195.473 103.571 191.666C101.098 190.534 99.2428 189.711 97.6969 189.094C91.7197 186.522 91.7197 186.522 89.3494 180.452C88.8341 179.115 88.2158 177.572 87.4944 175.72C84.5058 168.312 82.1355 166.872 79.1469 166.872C78.5286 166.872 77.8072 166.975 77.1889 166.975C76.3644 167.078 75.643 167.078 74.7155 167.078C72.7575 167.078 70.1811 166.769 66.4711 164.197C63.6886 162.242 62.555 160.493 62.9672 158.95C64.8222 152.983 91.1014 150.72 96.2541 150.72C96.3572 150.72 96.4603 150.72 96.4603 150.72L96.5633 150.411L96.7694 150.72C100.17 148.971 102.025 146.81 103.88 144.65C106.251 141.769 108.518 139.094 114.289 137.242C116.35 136.625 118.102 136.111 119.442 135.699C126.965 133.539 127.068 133.436 130.262 123.971L130.675 122.736C131.293 120.987 130.778 119.753 130.366 118.621C129.85 117.181 129.335 115.946 131.293 113.786C132.324 112.551 136.034 111.214 139.228 109.979C141.392 109.156 143.454 108.333 144.587 107.716C146.339 106.687 147.473 105.247 148.606 103.909C150.049 102.16 151.492 100.514 153.965 99.5881C155.614 98.9708 157.675 98.6622 160.149 98.6622C166.229 98.6622 173.443 100.617 179.214 102.057C180.554 102.366 181.79 102.777 182.924 102.983C201.68 107.613 219.509 116.049 236.719 124.177L238.471 125C279.487 144.341 310.404 165.946 333.076 191.049C348.328 207.921 358.221 224.382 363.168 241.255C369.042 261.11 364.817 285.39 352.656 301.645C346.37 310.082 335.137 320.061 317.617 320.061C313.083 320.061 308.342 319.341 303.602 318.003C261.864 305.966 263.204 264.814 267.739 227.263C269.078 216.049 267.017 206.892 261.658 200.822C257.124 195.678 250.219 192.901 242.387 192.901C227.856 192.901 209.306 202.88 203.535 221.399C196.939 242.592 211.058 260.699 224.661 278.189C239.192 296.81 254.135 316.151 245.788 339.917C240.944 353.6 223.012 371.604 207.863 373.25C207.039 373.353 206.214 373.353 205.39 373.353C197.352 373.353 191.684 368.826 185.706 363.991C180.863 360.596 176.019 356.686 169.836 354.835Z" fill="white"/>
<path d="M225.484 37.4483C228.988 37.4483 232.904 36.6253 236.304 35.8023C238.056 35.3907 239.705 35.0821 241.045 34.8763C243.518 34.5677 245.992 34.3619 248.259 34.259C253.103 33.9504 257.74 33.7446 261.347 31.687C264.336 30.041 266.397 27.2632 267.943 23.2508C270.622 16.0492 273.817 8.02453 278.454 -0.000146864H278.145C273.508 7.92165 270.313 15.9463 267.633 23.148C266.191 27.0574 264.129 29.7323 261.244 31.3784C257.637 33.436 253.103 33.6418 248.259 33.9504C245.889 34.0533 243.518 34.259 240.942 34.5677C239.602 34.7735 237.953 35.0821 236.201 35.4936C232.801 36.2138 228.988 37.1397 225.484 37.1397C222.083 37.1397 219.713 36.3167 218.064 34.5677C214.251 30.4525 216.209 20.9875 217.239 15.8434L217.445 15.0204C218.579 9.15622 220.434 4.21795 223.113 -0.103027H222.701C220.125 4.11507 218.27 9.15622 217.136 14.9175L216.93 15.7406C215.899 20.8846 213.941 30.4525 217.858 34.6706C219.506 36.6253 221.98 37.4483 225.484 37.4483Z" fill="white"/>
<path d="M305.25 0H304.528C303.292 1.33745 302.158 2.57201 301.334 3.7037C289.997 19.1358 284.948 33.3333 285.875 47.2221C286.287 52.5719 285.566 56.1727 283.814 58.1275C282.68 59.362 281.135 59.9793 278.971 59.9793C275.982 59.9793 272.272 58.8476 268.356 57.6131C264.852 56.4814 261.142 55.3497 257.638 55.0411C255.062 54.7324 252.382 54.6295 249.703 54.6295C240.943 54.6295 232.699 55.967 223.939 57.5102C222.496 57.7159 220.95 58.0246 219.507 58.2303H219.404C216.313 58.7448 212.809 59.2592 209.408 59.2592C203.019 59.2592 198.896 57.0987 196.835 52.7777C192.61 43.6213 193.744 32.6131 194.774 22.9423C194.877 21.6049 195.083 20.3703 195.186 19.0329C195.908 11.9341 197.144 5.65843 198.896 0H198.381C196.629 5.65843 195.392 11.9341 194.671 19.0329C194.568 20.2675 194.362 21.6049 194.259 22.9423C193.228 32.716 191.992 43.8271 196.32 53.0863C198.484 57.7159 202.709 59.8764 209.408 59.8764C212.809 59.8764 216.416 59.2592 219.507 58.8476H219.611C221.053 58.6419 222.599 58.3332 224.042 58.1275C232.802 56.6871 241.046 55.2468 249.806 55.2468C252.588 55.2468 255.165 55.3497 257.741 55.6583C261.142 56.0699 264.852 57.2015 268.356 58.2303C272.272 59.4649 276.085 60.5966 279.074 60.5966C281.341 60.5966 283.093 59.9793 284.329 58.539C286.184 56.4814 286.906 52.7777 286.494 47.2221C285.463 33.4362 290.513 19.3415 301.849 4.01234C302.673 2.88065 303.91 1.44033 305.25 0Z" fill="white"/>
<path d="M301.951 77.9832C298.447 80.4523 293.707 81.6869 287.317 81.6869C279.897 81.6869 271.55 80.0408 264.13 78.6005C259.801 77.7774 255.679 76.9544 252.381 76.5429C250.732 76.3371 246.301 75.9256 240.942 75.9256C230.946 75.9256 218.064 77.263 213.735 83.7445C211.88 86.5223 211.777 90.1231 213.529 94.2383C214.354 96.193 216.415 97.2218 218.476 98.2506C220.125 99.0737 221.774 99.8967 222.701 101.131C223.835 102.572 224.453 104.732 225.072 106.687C225.896 109.362 226.72 112.139 228.679 113.786C231.049 115.843 233.728 116.769 237.026 116.769C239.293 116.769 241.664 116.358 243.931 115.843C246.198 115.432 248.465 114.917 250.629 114.917C252.794 114.917 254.649 115.329 256.297 116.255C260.42 118.312 262.069 121.193 263.82 123.971C265.985 127.572 268.046 130.967 274.847 132.51C288.966 135.802 292.882 139.3 302.26 147.633C303.497 148.662 304.734 149.897 306.176 151.131C309.577 154.115 312.051 157.51 314.421 160.699C316.585 163.58 318.749 166.666 321.635 169.341C325.139 172.736 328.436 174.176 331.631 175.72C335.856 177.674 339.979 179.526 343.585 185.802L344.204 186.831C348.841 194.753 353.479 202.16 356.364 202.16C356.777 202.16 357.189 201.954 357.498 201.646C358.529 200.514 358.838 197.53 358.322 192.489C358.013 189.506 355.952 186.934 353.891 184.362C351.624 181.584 349.563 179.012 349.666 176.131C349.769 172.736 351.933 170.987 354.097 169.238C355.746 167.901 357.395 166.563 358.322 164.506C360.693 159.465 361.208 154.938 361.826 150.514C362.548 144.444 363.269 138.683 368.731 132.201C378.521 120.576 392.228 111.728 407.274 107.407C412.324 105.967 416.961 105.247 421.495 105.247C436.954 105.247 447.981 113.58 459.729 122.53C461.069 123.559 462.409 124.588 463.748 125.514V124.485C462.512 123.559 461.378 122.633 460.141 121.81C448.29 112.86 437.16 104.423 421.495 104.423C416.858 104.423 412.117 105.144 407.068 106.584C391.815 110.905 378.006 119.856 368.113 131.584C362.548 138.271 361.826 144.135 361.002 150.308C360.487 154.629 359.868 159.053 357.601 163.991C356.674 165.946 355.128 167.283 353.582 168.518C351.315 170.37 349.047 172.222 348.841 175.925C348.738 179.115 351.006 181.892 353.17 184.67C355.128 187.139 357.189 189.711 357.498 192.386C358.013 198.353 357.395 200.308 356.88 201.028C356.674 201.234 356.467 201.337 356.261 201.337C353.376 201.337 347.399 190.843 344.719 186.419L344.101 185.39C340.288 178.909 336.165 177.057 331.837 175.102C328.642 173.662 325.448 172.222 322.047 168.93C319.264 166.255 316.997 163.271 314.936 160.39C312.463 157.098 309.989 153.703 306.589 150.72C305.146 149.485 303.909 148.353 302.672 147.222C293.191 138.786 289.275 135.288 274.95 131.995C268.458 130.452 266.5 127.263 264.439 123.765C262.687 120.884 260.935 118.004 256.71 115.843C254.958 114.917 253 114.506 250.732 114.506C248.465 114.506 246.095 114.917 243.828 115.432C241.56 115.843 239.293 116.358 237.129 116.358C234.037 116.358 231.564 115.432 229.194 113.58C227.442 112.037 226.617 109.465 225.793 106.79C225.175 104.732 224.453 102.572 223.32 101.028C222.289 99.5881 220.537 98.765 218.888 97.942C216.93 96.9132 214.972 95.9873 214.251 94.2383C212.602 90.3288 212.705 87.0367 214.457 84.3618C218.579 78.1889 231.255 76.8515 241.148 76.8515C246.507 76.8515 250.939 77.263 252.484 77.4688C255.782 77.7774 259.904 78.6005 264.233 79.5264C271.653 80.9667 280 82.7157 287.523 82.7157C294.016 82.7157 298.962 81.4811 302.569 78.9091C311.638 72.5305 308.959 62.9626 306.485 53.7034C303.806 43.8269 301.024 33.5388 312.154 26.8516C313.493 26.0285 315.245 25.617 317.409 25.617C324.005 25.617 333.383 29.2178 342.452 32.7158C350.284 35.8022 357.807 38.6828 362.651 38.7857C363.372 38.7857 364.094 38.7857 364.712 38.7857C375.12 38.7857 385.632 37.0367 395.835 35.2878C406.037 33.5388 416.549 31.7898 426.854 31.7898C434.068 31.7898 440.664 32.6129 446.847 34.4647C452.618 36.1108 458.286 38.2713 463.851 40.7404V39.9174C458.286 37.4483 452.721 35.3907 447.053 33.7446C440.767 31.9956 434.171 31.0697 426.854 31.0697C416.446 31.0697 405.934 32.8186 395.732 34.5676C385.632 36.3166 375.12 38.0656 364.712 38.0656C363.99 38.0656 363.372 38.0656 362.651 38.0656C357.91 37.9627 350.593 35.082 342.761 32.0985C333.692 28.6005 324.211 24.8969 317.409 24.8969C315.039 24.8969 313.184 25.3084 311.741 26.2343C300.199 33.2302 302.982 43.724 305.764 53.9091C308.134 62.9626 310.505 71.9132 301.951 77.9832Z" fill="white"/>
<path d="M214.253 51.7489C216.417 51.7489 218.993 51.4402 222.806 50.823C232.39 49.1769 241.975 48.4567 252.795 48.4567C255.578 48.4567 258.36 48.4567 261.349 48.5596C262.38 48.5596 263.307 48.5596 264.131 48.5596C269.181 48.5596 272.067 47.9423 274.231 46.502C276.807 44.753 278.353 41.5637 279.384 36.0082C281.754 23.251 286.804 11.8313 295.46 0H295.048C286.391 11.8313 281.342 23.251 278.971 36.0082C277.941 41.4608 276.498 44.5472 273.922 46.2962C271.861 47.7365 268.872 48.3538 263.925 48.3538C263.101 48.3538 262.173 48.3538 261.143 48.3538C258.051 48.2509 255.269 48.2509 252.589 48.2509C241.665 48.2509 232.081 48.9711 222.497 50.6172C218.684 51.2345 216.211 51.5431 213.943 51.5431C207.76 51.5431 203.226 49.4855 201.68 39.3003C200.237 29.6296 201.474 19.3415 202.916 12.4485C203.844 8.02468 204.978 3.90946 206.523 0.10288H206.214C204.668 3.80658 203.432 7.9218 202.607 12.3457C201.268 19.2386 199.928 29.5267 201.371 39.3003C203.123 48.0452 206.73 51.7489 214.253 51.7489Z" fill="white"/>
<path d="M218.579 43.9298C219.507 43.9298 220.64 43.8269 221.671 43.6212C229.812 42.2837 238.675 41.4607 247.744 41.2549C249.908 41.152 251.866 41.2549 253.824 41.2549C255.164 41.2549 256.401 41.3578 257.534 41.3578C261.244 41.3578 265.057 41.0492 268.046 38.9915C270.519 37.2426 272.271 34.4648 273.405 30.2467C276.496 19.0327 280.928 9.05333 286.905 -0.103027H286.493C280.516 8.95045 276.084 18.9299 273.096 30.1438C271.962 34.259 270.313 37.0368 267.84 38.6829C264.954 40.7405 261.141 40.9463 257.534 40.9463C256.297 40.9463 255.061 40.9463 253.824 40.8434C251.866 40.8434 249.805 40.7405 247.744 40.8434C238.675 41.0492 229.812 41.8722 221.671 43.2096C216.93 44.0327 213.426 43.0039 211.262 40.4319C206.315 34.3619 208.995 20.8846 210.438 13.5801C211.468 8.53893 212.911 3.90931 214.972 -0.103027H214.663C212.705 4.01219 211.262 8.53893 210.232 13.5801C208.789 20.8846 206.109 34.5677 211.159 40.7405C212.705 42.901 215.281 43.9298 218.579 43.9298Z" fill="white"/>
</g>
</g>
<defs>
<clipPath id="clip0_3_1009">
<rect width="312" height="229" rx="16" fill="white"/>
</clipPath>
</defs>
</svg>
