<svg width="24" height="25" viewBox="0 0 24 25" fill="none" xmlns="http://www.w3.org/2000/svg">
<path fill-rule="evenodd" clip-rule="evenodd" d="M12.4836 2.41699C13.6166 2.41699 19.5616 4.45799 20.3486 5.24499C21.0046 5.90099 20.9946 6.43099 20.9486 8.97099C20.9306 9.98899 20.9056 11.376 20.9056 13.296C20.9056 20.178 13.0356 22.64 12.7006 22.741C12.6296 22.763 12.5566 22.773 12.4836 22.773C12.4106 22.773 12.3376 22.763 12.2666 22.741C11.9316 22.64 4.06159 20.178 4.06159 13.296C4.06159 11.379 4.03659 9.99199 4.01859 8.97399C4.01038 8.51989 4.00331 8.12997 4.00099 7.79206L4.0007 7.41076C4.00928 6.15812 4.12684 5.73699 4.61959 5.24499C5.40459 4.45799 11.3496 2.41699 12.4836 2.41699ZM12.4836 3.91699C11.6356 3.91699 6.28559 5.80099 5.66859 6.31599C5.48659 6.49899 5.47959 6.81699 5.51859 8.94599C5.53659 9.97199 5.56159 11.366 5.56159 13.296C5.56159 18.497 11.2836 20.806 12.4826 21.231C13.6806 20.804 19.4056 18.482 19.4056 13.296C19.4056 11.364 19.4306 9.96899 19.4496 8.94299C19.4876 6.81599 19.4806 6.49799 19.2876 6.30599C18.6826 5.80099 13.3316 3.91699 12.4836 3.91699ZM16.2051 9.75649C16.4981 10.0495 16.4981 10.5245 16.2051 10.8175L12.3071 14.7165C12.1951 14.8293 12.0505 14.9024 11.8952 14.9271L11.7771 14.9365C11.5781 14.9365 11.3871 14.8575 11.2461 14.7165L9.35409 12.8225C9.06209 12.5295 9.06209 12.0535 9.35509 11.7615C9.64709 11.4685 10.1231 11.4685 10.4161 11.7615L11.7771 13.1245L15.1451 9.75649C15.4381 9.46349 15.9121 9.46349 16.2051 9.75649Z" fill="#355FE5"/>
</svg>
